<svg xmlns="http://www.w3.org/2000/svg" xmlns:xlink="http://www.w3.org/1999/xlink" fill="none" version="1.1" width="24" height="24" viewBox="0 0 24 24"><defs><clipPath id="master_svg0_17_17479/17_07683"><rect x="-1" y="-1" width="26" height="26" rx="0"/></clipPath></defs><g clip-path="url(#master_svg0_17_17479/17_07683)"><g transform="matrix(-1,0,0,-1,30,34)"><path d="M20.7069654,17.70696557Q20.847589499999998,17.5663414,20.9236946,17.38260704Q20.9998002,17.19887266,20.9998002,17Q20.9997997,16.901528291,20.9805889,16.8049487Q20.9613781,16.70836911,20.9236941,16.61739314Q20.8860111,16.52641714,20.8313026,16.44454092Q20.7765951,16.3626647,20.7069654,16.29303467Q20.637334799999998,16.22340465,20.5554585,16.16869676Q20.4735823,16.11398882,20.3826065,16.07630533Q20.2916307,16.03862178,20.1950512,16.01941091Q20.0984716,16.00020003,20,16.00019997Q19.8011274,16.00019997,19.6173935,16.07630527Q19.4336586,16.15241051,19.2930346,16.29303467L19.2928929,16.29289317L14.29289317,21.2928929L14.29303467,21.2930346Q14.15241051,21.4336586,14.07630527,21.617393Q14.00019997,21.8011274,14.00019997,22Q14.00020003,22.0984716,14.01941091,22.1950512Q14.03862178,22.2916307,14.07630527,22.3826065Q14.11398876,22.4735823,14.1686967,22.555459Q14.223404649999999,22.637334799999998,14.29303467,22.7069654Q14.3626647,22.7765951,14.44454092,22.8313031Q14.52641714,22.8860111,14.61739314,22.9236941Q14.70836911,22.9613781,14.8049487,22.9805889Q14.901528291,22.9997997,15,22.9998002Q15.19887266,22.9998002,15.38260704,22.9236951Q15.5663414,22.847589499999998,15.70696557,22.7069654L15.70710683,22.7071066L20.7071066,17.70710683L20.7069654,17.70696557Z" fill-rule="evenodd" fill="#F3E3C4" fill-opacity="1"/></g><g transform="matrix(-1,0,0,-1,30,24)"><path d="M14.29303461,12.70696539Q14.15241045,12.56634122,14.07630527,12.38260692Q14.00019997,12.19887258,14.00019997,12Q14.00020003,11.901528291,14.01941091,11.8049487Q14.03862178,11.70836911,14.07630527,11.61739314Q14.11398876,11.52641714,14.1686967,11.44454092Q14.223404649999999,11.3626647,14.29303467,11.29303467Q14.3626647,11.223404649999999,14.44454092,11.16869676Q14.52641714,11.11398882,14.61739314,11.07630533Q14.70836911,11.03862178,14.8049487,11.01941091Q14.901528291,11.00020003,15,11.00019997Q15.19887258,11.00019997,15.38260692,11.07630527Q15.56634122,11.15241045,15.70696539,11.29303461L15.70710683,11.29289317L20.7071066,16.2928929L20.7069654,16.2930341Q20.847589499999998,16.4336581,20.9236946,16.6173925Q20.9997997,16.801127,20.9998002,17Q20.9997997,17.0984716,20.9805889,17.1950512Q20.9613781,17.2916307,20.9236941,17.3826065Q20.8860111,17.4735823,20.8313026,17.555459Q20.7765951,17.637334799999998,20.7069654,17.7069654Q20.637334799999998,17.7765951,20.5554585,17.8313031Q20.4735823,17.8860111,20.3826065,17.9236941Q20.2916307,17.9613781,20.1950512,17.9805889Q20.0984716,17.9997997,20,17.9998002Q19.801127,17.9997997,19.6173925,17.9236946Q19.4336581,17.847589499999998,19.2930341,17.7069654L19.2928929,17.7071066L14.29289317,12.70710683L14.29303461,12.70696539Z" fill-rule="evenodd" fill="#F3E3C4" fill-opacity="1"/></g></g></svg>