<svg xmlns="http://www.w3.org/2000/svg" xmlns:xlink="http://www.w3.org/1999/xlink" fill="none" version="1.1" width="30" height="30" viewBox="0 0 30 30"><defs><clipPath id="master_svg0_17_7510"><rect x="-1" y="-1" width="32" height="32" rx="0"/></clipPath><filter id="master_svg1_17_17085" filterUnits="objectBoundingBox" color-interpolation-filters="sRGB" x="-0.2916666666666667" y="-0.2916666666666667" width="1.6666666666666667" height="1.6666666666666667"><feFlood flood-opacity="0" result="BackgroundImageFix"/><feColorMatrix in="SourceAlpha" type="matrix" values="0 0 0 0 0 0 0 0 0 0 0 0 0 0 0 0 0 0 127 0"/><feOffset dy="1" dx="1"/><feGaussianBlur stdDeviation="2"/><feColorMatrix type="matrix" values="0 0 0 0 0.9529411792755127 0 0 0 0 0.8901960849761963 0 0 0 0 0.7686274647712708 0 0 0 0.800000011920929 0"/><feBlend mode="normal" in2="BackgroundImageFix" result="effect1_dropShadow"/><feBlend mode="normal" in="SourceGraphic" in2="effect1_dropShadow" result="shape"/></filter><linearGradient x1="0.5" y1="-220.42410278320312" x2="0.5" y2="214.0465545654297" id="master_svg2_17_17087"><stop offset="0%" stop-color="#FFFFFF" stop-opacity="1"/><stop offset="100%" stop-color="#F3E3C4" stop-opacity="1"/></linearGradient></defs><g clip-path="url(#master_svg0_17_7510)"><g filter="url(#master_svg1_17_17085)"><path d="M9,16L21,16L21,15.99980003Q21.098471,15.99979997,21.195050000000002,15.98058909Q21.291629999999998,15.96137822,21.382607,15.92369473Q21.473582,15.88601124,21.555459,15.8313033Q21.637335,15.776595350000001,21.706965,15.70696533Q21.776595999999998,15.6373353,21.831304,15.55545908Q21.886011,15.47358286,21.923695000000002,15.38260686Q21.961378,15.29163089,21.980589000000002,15.1950513Q21.9998,15.098471709,21.9998,15Q21.9998,14.901528291,21.980589000000002,14.8049487Q21.961378,14.70836911,21.923693999999998,14.61739314Q21.886011,14.52641714,21.831303,14.44454092Q21.776594,14.3626647,21.706964,14.29303467Q21.637334,14.223404649999999,21.555458,14.16869676Q21.473581,14.11398882,21.382606,14.07630533Q21.291629999999998,14.03862178,21.195050000000002,14.01941091Q21.098471,14.00020003,21,14.00019997L21,14L9,14L9,14.00019997Q8.901528291,14.00020003,8.8049487,14.01941091Q8.70836911,14.03862178,8.61739314,14.07630527Q8.52641714,14.11398876,8.44454092,14.1686967Q8.3626647,14.223404649999999,8.29303467,14.29303467Q8.223404649999999,14.3626647,8.16869676,14.44454092Q8.11398882,14.52641714,8.07630533,14.61739314Q8.03862178,14.70836911,8.01941091,14.8049487Q8.00020003,14.901528291,8.00019997,15Q8.00020003,15.098471709,8.01941091,15.1950513Q8.03862178,15.29163089,8.07630527,15.38260686Q8.11398876,15.47358286,8.1686967,15.55545908Q8.223404649999999,15.6373353,8.29303467,15.70696533Q8.3626647,15.776595350000001,8.44454092,15.83130324Q8.52641714,15.88601118,8.61739314,15.92369467Q8.70836911,15.96137822,8.8049487,15.98058909Q8.901528291,15.99979997,9,15.99980003L9,16Z" fill-rule="evenodd" fill="url(#master_svg2_17_17087)" fill-opacity="1"/></g></g></svg>