<svg xmlns="http://www.w3.org/2000/svg" xmlns:xlink="http://www.w3.org/1999/xlink" fill="none" version="1.1" width="24" height="24" viewBox="0 0 24 24"><defs><linearGradient x1="0.5" y1="0" x2="0.5" y2="1" id="master_svg0_17_8855"><stop offset="0%" stop-color="#FFFFFF" stop-opacity="1"/><stop offset="100%" stop-color="#1EA2FF" stop-opacity="1"/></linearGradient></defs><g><path d="M8.0001998,4Q8.0001993,3.90152824,8.0194101,3.80494863Q8.0386209,3.70836902,8.0763044,3.6173930199999997Q8.1139879,3.5264170200000002,8.1686959,3.4445408Q8.223403900000001,3.36266458,8.2930346,3.29303458Q8.362664200000001,3.22340459,8.444540499999999,3.16869663Q8.5264168,3.11398868,8.617392500000001,3.076305196Q8.7083683,3.038621716,8.8049483,3.019410843Q8.9015284,3.00019997358,9,3.00019997358Q9.0984716,3.00019997358,9.1950507,3.019410849Q9.291630699999999,3.038621724,9.3826065,3.076305211Q9.4735823,3.1139887,9.5554585,3.16869664Q9.6373348,3.2234046,9.706965,3.29303461Q9.7765946,3.36266461,9.8313026,3.4445408Q9.886010200000001,3.5264170200000002,9.923694099999999,3.6173930199999997Q9.961378100000001,3.70836902,9.9805889,3.80494863Q9.9997997,3.90152824,9.9998002,4L10,4L10,6.9847546000000005Q10,8.2273941,9.1136971,9.1136971Q8.2273936,10,6.9847538,10L4,10L4,9.9998002Q3.90152824,9.9997997,3.80494863,9.9805889Q3.70836902,9.961378100000001,3.6173930199999997,9.923694099999999Q3.5264170200000002,9.886010599999999,3.4445408,9.8313026Q3.36266458,9.7765951,3.29303458,9.7069654Q3.22340459,9.6373348,3.16869663,9.5554585Q3.11398868,9.4735823,3.076305196,9.3826065Q3.038621716,9.291630699999999,3.019410843,9.1950507Q3.00019997358,9.0984716,3.00019997358,9Q3.00019997358,8.9015284,3.019410849,8.8049483Q3.038621724,8.7083683,3.076305211,8.617392500000001Q3.1139887,8.5264168,3.16869664,8.444540499999999Q3.2234046,8.362664200000001,3.29303461,8.2930346Q3.36266461,8.2234044,3.4445408,8.1686964Q3.5264170200000002,8.1139884,3.6173930199999997,8.0763049Q3.70836902,8.0386214,3.80494863,8.0194106Q3.90152824,8.0001998,4,8.0001998L4,8L6.9847538,8Q7.3989673,8,7.6994839,7.6994839Q8,7.3989673,8,6.9847546000000005L8,4L8.0001998,4ZM15.9998,20Q15.9998,20.098473,15.980589,20.195051Q15.961378,20.29163,15.923694,20.382607Q15.886011,20.473583,15.831303,20.555458Q15.776594,20.637333,15.706964,20.706964Q15.637334,20.776592,15.555458,20.831301Q15.473581,20.886009,15.382606,20.923693Q15.29163,20.961376,15.19505,20.980587Q15.098471,20.999798,15,20.9998Q14.901527,20.999798,14.804948,20.980587Q14.708368,20.961376,14.617392,20.923691Q14.526415,20.886009,14.44454,20.831301Q14.362663,20.776592,14.293034,20.706964Q14.223403,20.637333,14.168694,20.555458Q14.113987,20.473583,14.076303,20.382607Q14.03862,20.29163,14.019409,20.195051Q14.000199,20.098473,14.0002,20L14,20L14,17.015247000000002Q14,15.772606,14.886303,14.886303Q15.772606,14.000001,17.015245999999998,14L20,14L20,14.0002Q20.098473,14.0002,20.195051,14.019411Q20.29163,14.038621,20.382607,14.076303Q20.473583,14.113987,20.555458,14.168695Q20.637333,14.223403,20.706964,14.293034Q20.776592,14.362663,20.831301,14.44454Q20.886009,14.526415,20.923693,14.617392Q20.961376,14.708368,20.980587,14.804948Q20.999798,14.901527,20.9998,15Q20.999798,15.098471,20.980587,15.19505Q20.961376,15.29163,20.923691,15.382607Q20.886009,15.473583,20.831301,15.555459Q20.776592,15.637335,20.706964,15.706965Q20.637333,15.776596,20.555458,15.831304Q20.473583,15.886011,20.382607,15.923695Q20.29163,15.961378,20.195051,15.980589Q20.098473,15.9998,20,15.999801L20,16.000000999999997L17.015245999999998,16.000000999999997Q16.601033,16.000000999999997,16.300516000000002,16.300517Q16,16.601033,16,17.015247000000002L16,20L15.9998,20ZM20,8.0001998Q20.098473,8.0001998,20.195051,8.0194106Q20.29163,8.0386214,20.382607,8.0763049Q20.473583,8.1139884,20.555458,8.1686964Q20.637333,8.2234044,20.706964,8.2930346Q20.776592,8.362664200000001,20.831301,8.444540499999999Q20.886009,8.5264168,20.923693,8.617392500000001Q20.961376,8.7083683,20.980587,8.8049483Q20.999798,8.9015284,20.9998,9Q20.999798,9.0984716,20.980587,9.1950507Q20.961376,9.291630699999999,20.923691,9.3826065Q20.886009,9.4735823,20.831301,9.5554585Q20.776592,9.6373348,20.706964,9.706965Q20.637333,9.7765946,20.555458,9.8313026Q20.473583,9.886010200000001,20.382607,9.923694099999999Q20.29163,9.961378100000001,20.195051,9.9805889Q20.098473,9.9997997,20,9.9998002L20,10.000000499999999L17.015247000000002,10.000000499999999Q15.772606,10.000000499999999,14.886303,9.1136971Q14.000001,8.2273946,14,6.9847538L14,4L14.0002,4Q14.000199,3.90152824,14.01941,3.80494863Q14.03862,3.70836902,14.076303,3.6173930199999997Q14.113987,3.5264170200000002,14.168695,3.4445408Q14.223403,3.36266458,14.293034,3.29303458Q14.362663,3.22340459,14.44454,3.16869663Q14.526415,3.11398868,14.617392,3.076305196Q14.708368,3.038621716,14.804948,3.019410843Q14.901527,3.00019997358,15,3.00019997358Q15.098471,3.00019997358,15.19505,3.019410849Q15.29163,3.038621724,15.382607,3.076305211Q15.473583,3.1139887,15.555459,3.16869664Q15.637335,3.2234046,15.706965,3.29303461Q15.776596,3.36266461,15.831304,3.4445408Q15.886011,3.5264170200000002,15.923695,3.6173930199999997Q15.961378,3.70836902,15.980589,3.80494863Q15.9998,3.90152824,15.999801,4L16.000000999999997,4L16.000000999999997,6.9847538Q16.000000999999997,7.3989668,16.300517,7.6994839Q16.601033,8,17.015247000000002,8L20,8L20,8.0001998ZM4,15.9998Q3.90152824,15.9998,3.80494863,15.980589Q3.70836902,15.961378,3.6173930199999997,15.923694Q3.5264170200000002,15.886011,3.4445408,15.831303Q3.36266458,15.776594,3.29303458,15.706964Q3.22340459,15.637334,3.16869663,15.555458Q3.11398868,15.473581,3.076305196,15.382606Q3.038621716,15.29163,3.019410843,15.19505Q3.00019997358,15.098471,3.00019997358,15Q3.00019997358,14.901527,3.019410849,14.804948Q3.038621724,14.708368,3.076305211,14.617392Q3.1139887,14.526415,3.16869664,14.44454Q3.2234046,14.362663,3.29303461,14.293034Q3.36266461,14.223403,3.4445408,14.168694Q3.5264170200000002,14.113987,3.6173930199999997,14.076303Q3.70836902,14.038621,3.80494863,14.01941Q3.90152824,14.0002,4,14.0002L4,14L6.9847529,14Q8.2273936,14,9.1136966,14.886303Q9.999998999999999,15.772606,9.999999500000001,17.015245999999998L9.999999500000001,20L9.9997997,20Q9.9997997,20.098473,9.980588000000001,20.195051Q9.9613771,20.29163,9.923693700000001,20.382607Q9.886010200000001,20.473583,9.8313026,20.555458Q9.7765946,20.637333,9.706965,20.706964Q9.6373348,20.776592,9.5554585,20.831301Q9.4735823,20.886009,9.3826065,20.923693Q9.2916303,20.961376,9.1950507,20.980587Q9.0984707,20.999798,8.999999500000001,20.9998Q8.901527399999999,20.999798,8.8049479,20.980587Q8.7083683,20.961376,8.6173921,20.923691Q8.526415799999999,20.886009,8.44454,20.831301Q8.362663300000001,20.776592,8.293033600000001,20.706964Q8.223403900000001,20.637333,8.1686959,20.555458Q8.1139879,20.473583,8.0763044,20.382607Q8.0386209,20.29163,8.0194101,20.195051Q8.0001993,20.098473,8.0001993,20L7.999999,20L7.999999,17.015245999999998Q7.999999,16.601033,7.6994829,16.300516000000002Q7.3989668,16,6.9847529,16L4,16L4,15.9998Z" fill-rule="evenodd" fill="url(#master_svg0_17_8855)" fill-opacity="1"/></g></svg>